<svg xmlns="http://www.w3.org/2000/svg" version="1.1" baseProfile="tiny" width="1200" height="800" viewBox="0 0 1200 800">
<g>
<g stroke="#000000" stroke-width=".98" fill="#FFFFFF">
<path d="m832.54 14.32l-20.46-9.32-22.84 18.38-9.92 15.46 7.74 4.78-9.55 13.03-12.82-4.62-4.88 8.79-2.23-1.32-9.47 8.33 3.72 1.49-3.6 3.57-9.83 5.66-2.44-2.18-10.1 5.81 4.03 6.16-22.05 6.17-22.61 11.34-9.38-16.8-4.62-1.51-27.99-28.34-41.8 16.52 2.33 2.81-24.73 9.71-.84-1.43-3.36.75-.19 2.42-12.03 4.86-4.44-3.5-2.86.59 2.35 1.77-17.04.07 15.04 6.36-10.36-1.69.37-1.3-23.53 14.01-9.22-10.35-7.36 10.36-31.39-11.89-4.12 6.23-25.81 18.45-13.12 5.17-.47-2.09-67.64-2.98 2.23 2.48-3.53 10.13-31.26 0-26.31 6.42.74 5.15 10.23 15.08-1.1 5.06 9.04 8.77 5.63.61 2.17 2.22-3.28 5.34-11.08 3.03 4.04 6.68-10.09 3.08-2.52 7.06.93 6.56 5.97 9.06-4.14 25-3.74 1.78 6.91 4.61-9.05 3.2 17.04 6.07-30.41 22.09-8.15 8.73 10.7 18.24 1.16 8.29-2.09 1.23 8.94 8.14 25.81 14.84.5 7.86 8.32 14.7-2.39 5.63 2.68 5.51 4.56 1.15-13.75 6.77-1.17-3.39-36.85 4.98 2.34 5.08-39.06 4.3 1.51 4.27-43.57 8.45 9.82 10.29-4.5 2.02 2.96 1.44-.08 4.72-53.31 8.6-23.69 7.14-6.04-.36-11.12 5.65 2.41 3.63-1.02 4.11-.8 1.63-2.12 1.63-.12 2.68-.83 1.14-.59.21.09.52-1.28 1.76-2.25 1.07-3.18.48-2.76 1.57-1.79.58-2.49-.08-.3.73 3.81 2.11 1.03-.25 4.94-3.08.6-.82.21-.9 1.14 1.41.19 6.62-1.84-.15-.4 1.12-7.64 2.38 2.89 2.92 8.58-1.13.36 3.49-2.25 3.06-4.46.25.36 7.05 2.82-.25 2.64.86 8.36-2.12 1.49 2.91 11.01-.85 1.31 15 11.21 1.42.97 2.44-17.57 3.64 2.99 9.41 7.87-1 15.19 23.07 3.97 1.87 12.07-.22.77 5.05 1.3 6.28-13.58 1.85 3.37 12.27 1.94 2.21 22.06-3.56 1.61 5.58-2.1 4.1 6.57-.74 2.17 8.37 18.17 13.34.05 2.97-6.79 3.18-8.94.55-4.15-2.86-4.56.16-7.76 4.99 1.8 3.96 6.84-3.53 25.62-.84 3.69 1.33-.79 3.67 12.61-1.47 1.84 2.39 10.83 1.64-16.73 5.17.35 2.18-2.56.82 6.13 12.89 3.69 1.12-46.86 9.12 1.71 6.88-10.87 1.53 2.44 11.04-9.24 1.18-1.38 6.03-15.98-2.79-2.11 3.02-20.14 10.72 5.76 2.98 2.63 1.37 6.28 4.61 4.66 2.96 3.48 1.63 2.56 1.2 8.1 4.32-1.16 1.01 5.33 3.62 3.31 2.89 5.04 3.37 4.56 2.08 14.2 7.74 7.1 2.79 6.68 2.25 5.66 1.48 6.53 1.12 5.62-.12 10.33-1.64 5.64-2.24 11.97-4.33 6.21-2.97 6.86-3.77 10.31-4.94-.63-1.22 0-.01 6.51-1.29 3.83-.5 4.85-.91.03-.01 7.19-.81 5.83.01 4.98.6 4.65 1.15 4.35 1.54 8.16 2.4.03 0 7.01.78 13.41-.82 8.12-1.24 1.66-.54 1.97-.65.54-.14 5.66-1.44 4.13-.38 3.47-.77 3.44-1.22.02-.01 5.25-1 4.83-.73 8.23.1.02 0-.28-1.37.4-5.08 1.44-.91.02-.01 2.16-1.06 1.73-.84.01-.01 0 0 3.45-1.15.02-.01 1.42-.71.01-.01 2.42-.56 10.41-.46 11.29 1.57 6.23-.22 5.52.38 11.36.49 4.31 1.49 4.07 1.12 2.03 1.81 4.09 5.37 1.54 1.15-1.09.92 6.13 2.69 3.44 1.31.04.02 4.77 3.5 4.01 1.65-.22.38 9.69 7.32 5.54 2.09 4.21 1.01 1.32.13 1.04.11 5.54.93 7.95.72 7.34 1.14 4.45 1.12.01 0 .37-.65.01-.01 2.25 1.02 2.91.76 13.3 1.05.02 0 0-.61 0 0 4.62-1.03 6.14-1.37 7.42-2.32.58-.19.01 0-.28-.79 0 0 8.99-3.2.02-.01 1.02 1.75 7.65-2.03 7.86-1.73 5.21-.44.02 0-.06-1.98 0 0 5.13.36 6.2 1.27 14.31 4.04.02 0 6.24 1.16 20.55 4.33 17.27 2.37 5.01 1.47 13.67 7.49-.53.35 4.14 3.82 11.64 9.14 2.67 1.68-.42 1.01 5.3 1.42 11.91 3.86 6.7 2.58 6.51 2.82 9.01 6.35 5.58 3.94 10.73 4.84 9.47 2.55 4.25 1.56 1.22.16 1.72-.2 2.65-.3 8.88 2.44 6.02.42 6.72-.45 6.49-.77 5.66-1.16 2.13-.14 12.27-2.37 6.74-1.66 13.42-1.74.02 0-.4-1.75 8.44-2.34.01 0 4.52-2.2 2.79-1.36 7.18-2.92.02 0 14.51-2.83 13.31-2.76.92 1.7 3.96-1.26.55 1.07 5.71-.27 6.72.58 5.72 1.15 8.34.43.36-1.23 0-.01 4.31.47 2.17 0 2.21.01 4.97-.37 2.39-.52 6.74-1.96.01 0 16-8.92.02-.01 2.66-1.23 3.34-1.55 3.99-1.85.02-.01 8.23-4.11.01-.01 12.51-4.61 14.94-3.59-.61-.84 6.9-4.14.36-.22.02-.01 6.42-3.21.03-.01 7.92-3.23 5.85-1.33.02 0 6.98-.27 1.32-5.79-2.07-6.92-4.46.15-1.67-4.89 2.42-3.16 8.52 1.91-4.32-6.16 7.63-5.07-.7-2.24-8.83 5.71-12.03 3.21-.69-17.86-5.67-2.4 3.16-4.25-7.91-3.34 14.65-20.53-1.03-4.85-5.64.03-.15-36.76-26.48-.04-.12-21.19-20.01.16-.01-29.28 7.1-3.35-.3-19.5-10.08-2.75-16.5.18.37-27.12 29.21.09-.01-3.43 3.64-.08-9.17-9.96 5.33-2.67-23.38-25.35 10.95-5.44-8.87-10.03 5.5-.8-4.95-9.19 4.07-2.56.57-18.46 3.02 1.84 3.79-2.16-2.11-2.98 1.84-4.35 14.13-1.58 6.01-3.88-5.54-4.48-6.38-1.4-1.55-3.44 9.48-4.24-6.14-6.82 9.18-4.86-3.32-4.06 18.48-7.77-7.92-2.99 9-5.44 1.66-5.03 7.21-4.42 4.1 13.08 14 9.36 1.5-6.75-6.42-5.8.16-3.51 4.13-5.14 5.92 4.02 2.23-1.32-1.98-7.37 1.56-3.03 3.88 1.08 2.69 9.14 4.02 4.69 9.44 2.97-3.79-7.18-.11-7.95 1.25-4.85 6.99-3.13-4.55-3.75.7-1.88-2.35-.52-18.84 7.83-5.5-.16-1.91-27 6.89.2 4.8 3.28 10.2-.53 1.12-5.71-41.89-7.27 9.48-27.29-2.95-2.82 1.29-4.01 13.43-13.7 3.96-13.79 7.9-2.52 10.97 2.59-8.33-9.31 6.27-2.23-3.04-4.57-6.13 1.27-2.49-6.81-4.82 1.51-8.04-5.42-6.65-.68 3.46-5.48-5.16-3.63 3.55-11.8-12.58-3.57-4.33 19.52-28.04-12.18-1.05-2.12 12.39-14.3-13.04-9.27-4.02 1.32-7.44-4.32-7.87 8.83-20.75 2.28-.94-3.95-10.98-4.4-5.42-.83-28.03 4.3-8.52-.33-36.57-9.76 4.16-17.75-2.87-3.23 6.34-3.83-5.4-6.64 12.11-14.34-11.94 3.52-11.25-1.31-8.53-3.98.67-6.39-20.6-8.88 5.22-3.88-2.38-2.5 18.82-13.72 4.9.92 2.68-1.79 12.25-13.59-2.42-.58 12.73-12.35-3.78-1.04-9.84-3.09-1.91-4.32-1.52 1.96-32.36-13.61 19.25-16.31-5.13-1.92-1.37-5.69-19.98-7.16-1.55 1.34z" />
</g>
</g>
</svg>